<?xml version="1.0" standalone="no"?>
<!DOCTYPE svg PUBLIC "-//W3C//DTD SVG 20010904//EN"
 "http://www.w3.org/TR/2001/REC-SVG-20010904/DTD/svg10.dtd">
<svg version="1.0" xmlns="http://www.w3.org/2000/svg"
 width="3000.000000pt" height="950.000000pt" viewBox="0 0 3000.000000 950.000000"
 preserveAspectRatio="xMidYMid meet">
<metadata>
Created by potrace 1.16, written by Peter Selinger 2001-2019
</metadata>
<g transform="translate(0.000000,950.000000) scale(0.100000,-0.100000)"
fill="#000000" stroke="none">
<path d="M19120 8754 c-451 -53 -790 -212 -1156 -542 -542 -489 -1002 -1296
-1366 -2397 -260 -787 -446 -1712 -489 -2429 -15 -257 -7 -808 15 -941 29
-180 79 -325 140 -408 50 -68 174 -104 316 -92 174 15 227 49 255 167 44 182
131 400 265 668 377 754 860 1447 1194 1715 44 35 61 43 66 33 37 -69 1 -421
-90 -868 -111 -544 -127 -910 -55 -1195 69 -272 251 -425 505 -425 146 0 244
30 338 103 54 41 169 187 277 350 32 48 60 86 62 83 2 -2 8 -31 14 -65 66
-414 369 -633 843 -608 267 14 513 120 707 305 247 235 424 554 500 905 11 50
25 94 30 98 6 3 57 14 114 23 104 17 357 76 406 94 l26 10 6 -111 c11 -190 55
-318 141 -414 77 -85 176 -125 342 -138 211 -16 438 79 622 259 50 51 92 87
92 81 0 -5 -5 -28 -10 -51 -33 -143 -31 -376 6 -517 57 -226 209 -374 404
-396 200 -22 348 32 531 192 255 223 428 464 622 866 44 91 82 168 84 171 3 3
9 -3 14 -13 6 -10 51 -72 102 -140 83 -112 217 -310 246 -364 11 -21 8 -24
-46 -52 -165 -83 -347 -228 -469 -374 -146 -173 -232 -321 -290 -497 -24 -75
-28 -100 -28 -220 -1 -128 0 -138 26 -191 81 -163 259 -246 508 -236 162 6
295 53 462 164 139 91 339 318 436 495 151 273 196 598 117 847 -15 45 -25 84
-23 86 2 1 50 24 108 51 163 74 347 177 494 276 44 31 57 36 52 22 -3 -11 -11
-73 -17 -139 -29 -313 40 -600 196 -820 294 -414 882 -420 1475 -14 305 208
659 561 911 909 152 208 324 508 317 552 -6 40 -62 63 -153 63 -129 -1 -149
-18 -273 -230 -251 -427 -768 -999 -1109 -1228 -266 -178 -444 -152 -566 81
-63 121 -82 199 -82 347 1 138 12 219 52 380 22 88 89 309 99 327 2 3 36 -5
76 -19 183 -64 401 -31 583 87 290 190 559 596 668 1009 27 106 30 131 31 281
1 211 -12 259 -94 341 -85 86 -139 104 -315 103 -123 0 -151 -4 -229 -28 -337
-102 -719 -418 -1067 -881 -149 -199 -256 -384 -371 -642 -69 -153 -365 -391
-697 -562 -76 -39 -148 -71 -160 -71 -15 0 -34 24 -78 98 -31 53 -101 164
-155 245 -223 340 -292 535 -292 822 1 227 58 457 165 666 67 130 207 319 237
319 31 0 52 -182 33 -281 -7 -33 -41 -150 -77 -259 -35 -109 -64 -205 -64
-214 0 -43 123 -64 216 -36 136 41 301 269 360 497 37 142 39 315 5 391 -61
135 -230 203 -471 189 -343 -21 -621 -225 -852 -627 -223 -387 -291 -784 -194
-1121 l23 -79 -54 -127 c-245 -582 -657 -1183 -811 -1183 -43 0 -76 66 -88
175 -25 233 114 888 319 1506 82 246 193 552 268 742 71 176 76 221 29 261
-35 29 -97 41 -185 34 -80 -7 -184 -60 -256 -132 -64 -63 -147 -230 -274 -551
-48 -121 -140 -328 -205 -460 -297 -602 -560 -935 -737 -935 -99 0 -135 51
-141 201 -5 120 9 230 55 429 79 346 220 750 415 1193 50 114 59 144 55 174
-13 79 -112 136 -237 137 -184 1 -262 -69 -428 -384 -160 -304 -287 -655 -353
-972 l-22 -107 -88 -40 c-48 -23 -128 -54 -176 -70 -93 -30 -282 -73 -293 -66
-4 2 -10 111 -13 242 -15 539 -67 767 -238 1034 -81 126 -219 220 -375 255
-59 13 -104 15 -193 11 -139 -7 -206 -24 -330 -84 -77 -37 -108 -59 -170 -122
-134 -135 -217 -316 -227 -498 -7 -137 -8 -140 -57 -164 -88 -45 -104 -64
-183 -221 -79 -158 -156 -337 -194 -453 -112 -344 -633 -1185 -733 -1185 -58
0 -106 172 -114 407 -7 202 1 266 151 1128 59 342 70 442 63 600 -14 336 -124
443 -446 433 -104 -3 -139 -9 -199 -30 -94 -34 -221 -114 -322 -203 -206 -182
-571 -626 -824 -1005 -95 -141 -97 -144 -92 -100 68 517 240 1650 256 1680 16
31 54 54 499 315 524 308 603 357 806 510 448 336 836 747 1097 1163 102 161
237 436 282 572 91 272 84 562 -16 753 -44 84 -136 174 -225 220 -116 60 -202
78 -393 82 -91 2 -181 1 -200 -1z m226 -165 c123 -23 224 -100 284 -218 48
-95 64 -171 64 -301 0 -276 -104 -552 -350 -925 -161 -246 -338 -457 -575
-690 -322 -315 -637 -551 -1209 -907 -204 -127 -230 -142 -236 -135 -11 11
117 563 192 832 147 521 382 1089 604 1459 247 413 440 620 709 759 214 111
379 151 517 126z m9111 -3734 c30 -21 53 -103 53 -187 0 -282 -233 -792 -471
-1031 -104 -104 -172 -141 -259 -141 -62 -1 -137 36 -166 80 -57 86 -10 253
152 542 144 259 224 376 357 522 120 132 246 230 297 230 9 0 25 -7 37 -15z
m-7661 -168 c98 -131 161 -328 199 -619 19 -149 29 -453 18 -583 l-8 -100 -34
3 c-53 4 -170 58 -243 112 -121 89 -229 246 -276 400 -35 115 -55 265 -49 370
10 192 107 377 251 482 38 27 39 27 69 10 16 -9 49 -43 73 -75z m-543 -1258
c175 -147 370 -222 624 -237 l108 -7 -3 -45 c-4 -64 -49 -260 -84 -365 -144
-432 -469 -744 -672 -645 -120 57 -204 225 -226 449 -17 177 25 482 97 706 35
110 72 205 79 205 2 0 37 -27 77 -61z m5133 -1057 c25 -260 -92 -632 -251
-801 -36 -38 -99 -92 -140 -120 l-75 -52 -26 28 c-35 37 -62 92 -70 140 -7 45
10 175 33 248 50 160 208 391 384 559 130 125 133 125 145 -2z"/>
</g>
</svg>
