<?xml version="1.0" standalone="no"?>
<!DOCTYPE svg PUBLIC "-//W3C//DTD SVG 20010904//EN"
 "http://www.w3.org/TR/2001/REC-SVG-20010904/DTD/svg10.dtd">
<svg version="1.0" xmlns="http://www.w3.org/2000/svg"
 width="3508.000000pt" height="2480.000000pt" viewBox="0 0 3508.000000 2480.000000"
 preserveAspectRatio="xMidYMid meet">
<metadata>
Created by potrace 1.16, written by Peter Selinger 2001-2019
</metadata>
<g transform="translate(0.000000,2480.000000) scale(0.100000,-0.100000)"
fill="#000000" stroke="none">
<path d="M22410 17393 c-404 -39 -725 -152 -1059 -371 -138 -91 -277 -206
-440 -366 -387 -381 -696 -825 -1001 -1441 -204 -410 -372 -830 -543 -1350
-468 -1425 -694 -3048 -557 -3997 44 -300 134 -500 253 -557 104 -50 362 -46
473 9 74 36 83 52 129 221 95 353 341 869 698 1464 296 493 688 1018 903 1211
103 92 196 164 205 159 19 -13 29 -137 19 -252 -24 -281 -48 -443 -120 -800
-136 -678 -154 -1124 -60 -1461 97 -349 370 -519 740 -462 80 13 207 74 275
132 54 48 216 260 315 416 36 55 68 101 71 101 3 1 9 -25 13 -56 46 -405 297
-681 679 -747 469 -81 901 60 1227 400 260 271 447 626 534 1014 15 68 32 120
41 126 9 7 42 15 73 19 126 15 370 71 573 132 14 4 17 -13 22 -129 8 -172 26
-252 82 -366 108 -218 267 -299 570 -289 119 4 151 8 215 31 214 76 404 207
528 364 23 30 42 50 42 45 0 -4 -9 -51 -21 -103 -28 -135 -36 -384 -15 -510
47 -285 181 -479 381 -551 76 -27 270 -38 354 -19 166 36 292 120 507 334 275
276 461 556 670 1008 33 71 61 128 64 128 3 0 14 -14 24 -32 11 -17 61 -86
111 -152 153 -202 320 -459 309 -477 -3 -5 -36 -25 -73 -44 -99 -49 -263 -162
-364 -250 -215 -187 -425 -485 -511 -723 -34 -95 -66 -255 -66 -331 0 -181 90
-336 239 -415 111 -58 203 -78 361 -78 157 0 235 17 386 83 344 151 686 536
829 934 97 270 107 597 24 808 -27 69 -25 76 34 100 174 71 494 248 666 367
40 28 75 49 77 47 2 -2 -1 -26 -6 -53 -17 -80 -24 -398 -11 -506 37 -318 191
-625 396 -788 114 -91 257 -154 405 -181 105 -18 309 -13 433 11 418 81 850
351 1322 824 260 261 451 495 637 781 145 223 263 444 253 474 -14 47 -131 77
-234 61 -111 -18 -131 -37 -246 -240 -210 -370 -677 -937 -1031 -1252 -422
-374 -694 -471 -882 -313 -76 64 -164 233 -199 382 -23 99 -22 306 1 448 26
157 135 554 165 603 6 10 19 8 57 -8 125 -54 316 -66 460 -30 329 83 668 416
899 885 82 165 152 363 186 525 29 137 32 372 6 467 -43 160 -131 246 -300
290 -79 21 -257 20 -352 0 -311 -68 -652 -288 -984 -633 -354 -367 -616 -745
-785 -1131 -24 -56 -58 -123 -76 -148 -123 -179 -464 -435 -817 -612 l-172
-87 -23 22 c-13 12 -43 56 -67 99 -25 43 -90 148 -146 233 -311 473 -395 697
-395 1050 0 376 130 765 349 1047 82 105 125 147 143 140 23 -8 39 -76 45
-184 7 -132 -2 -174 -93 -454 -41 -125 -74 -241 -74 -258 0 -48 42 -64 149
-59 106 5 169 35 251 117 162 162 276 414 301 663 24 241 -28 366 -184 443
-102 50 -215 69 -382 62 -204 -8 -356 -57 -524 -168 -330 -217 -648 -726 -750
-1199 -55 -259 -48 -513 22 -732 l23 -73 -73 -170 c-88 -205 -207 -446 -303
-614 -201 -350 -480 -711 -590 -763 -66 -31 -84 -32 -118 -3 -60 50 -81 187
-63 405 31 360 168 953 353 1520 75 232 247 711 333 930 42 107 79 214 82 237
10 76 -35 116 -149 132 -88 12 -159 -1 -255 -49 -99 -49 -193 -137 -240 -225
-50 -95 -159 -344 -238 -545 -266 -676 -664 -1358 -909 -1560 -83 -69 -153
-102 -219 -104 -126 -3 -177 80 -177 287 0 220 85 609 226 1035 83 249 297
789 374 943 58 114 34 189 -81 247 -148 76 -338 44 -454 -75 -51 -52 -118
-157 -203 -318 -202 -382 -348 -776 -432 -1171 -20 -96 -34 -140 -47 -149 -25
-20 -213 -99 -305 -129 -104 -34 -304 -78 -337 -74 l-26 3 -6 270 c-15 622
-76 907 -258 1208 -69 114 -118 167 -218 233 -199 133 -447 164 -707 89 -254
-73 -419 -214 -544 -460 -61 -122 -102 -306 -102 -460 0 -41 -3 -48 -31 -63
-132 -72 -143 -84 -212 -214 -107 -202 -218 -461 -294 -688 -8 -25 -69 -151
-134 -280 -239 -474 -545 -942 -677 -1034 -54 -38 -66 -32 -108 53 -37 73 -60
179 -75 342 -22 226 -3 373 175 1389 76 435 80 471 81 675 0 243 -28 362 -113
473 -29 38 -122 85 -207 103 -89 20 -296 17 -374 -5 -146 -40 -327 -148 -466
-278 -269 -251 -666 -738 -962 -1179 -70 -104 -128 -187 -130 -185 -12 12 254
1819 299 2030 6 27 21 60 37 76 14 15 256 162 536 326 687 402 852 507 1128
726 404 321 807 746 1079 1138 216 313 409 705 476 970 25 97 27 121 27 305 0
178 -3 209 -23 285 -97 356 -382 534 -843 528 -68 0 -140 -3 -159 -5z m293
-198 c159 -46 274 -172 337 -370 32 -100 38 -283 15 -430 -34 -219 -110 -422
-250 -670 -214 -379 -482 -722 -836 -1070 -406 -399 -809 -699 -1534 -1141
-188 -115 -215 -130 -215 -114 0 41 157 716 220 946 221 801 549 1549 915
2079 233 338 411 502 700 645 181 89 285 123 440 144 46 6 155 -4 208 -19z
m10838 -4464 c38 -40 53 -128 46 -259 -21 -360 -301 -944 -580 -1209 -130
-123 -236 -168 -343 -144 -111 25 -184 105 -184 202 0 62 45 219 91 317 45 97
189 359 267 485 90 147 197 282 329 417 129 133 202 191 269 215 48 17 71 12
105 -24z m-9199 -134 c23 -23 56 -65 74 -94 168 -261 261 -848 225 -1418 -6
-98 -7 -100 -32 -103 -40 -5 -193 56 -273 108 -224 146 -360 373 -415 694 -42
241 -24 393 71 585 42 87 64 118 127 181 85 85 134 114 164 99 10 -6 37 -29
59 -52z m-639 -1523 c218 -198 490 -300 842 -316 58 -3 60 -4 63 -31 11 -94
-104 -506 -192 -689 -93 -196 -263 -408 -399 -498 -63 -43 -168 -80 -223 -80
-142 0 -270 142 -340 377 -23 77 -27 111 -31 268 -4 137 -1 207 12 295 27 185
63 354 101 473 38 118 92 257 101 257 3 0 33 -25 66 -56z m6141 -1180 c17 -44
25 -208 15 -310 -20 -216 -71 -392 -167 -579 -47 -90 -72 -124 -142 -196 -87
-88 -220 -189 -250 -189 -18 0 -66 55 -96 110 -28 51 -26 245 4 350 68 244
283 554 535 771 71 62 91 70 101 43z"/>
</g>
</svg>
